<svg width="5990" height="1989" viewBox="0 0 5990 1989" fill="none" xmlns="http://www.w3.org/2000/svg">
<rect x="24.4372" y="24.4372" width="5941.4" height="1940.13" fill="#E18441" stroke="white" stroke-width="47.1257"/>
<path d="M1536.56 610.675C1536.56 610.675 1605.16 613.672 1742.36 619.666L1748.35 801.484H1716.38L1682.42 670.615C1646.45 655.297 1603.83 647.638 1554.55 647.638C1473.96 647.638 1407.03 674.278 1353.75 727.558C1301.13 780.172 1274.83 857.095 1274.83 958.327C1274.83 1059.56 1300.47 1134.48 1351.75 1183.1C1403.7 1231.05 1469.96 1255.03 1550.55 1255.03C1604.5 1255.03 1652.78 1247.04 1695.41 1231.05L1732.37 1116.17L1760.34 1117.17L1754.35 1267.02C1677.76 1283 1611.82 1290.99 1556.54 1290.99C1501.93 1290.99 1456.64 1288 1420.68 1282C1385.38 1276.01 1350.75 1265.35 1316.78 1250.03C1282.82 1234.72 1253.85 1215.07 1229.87 1191.09C1206.56 1167.12 1187.58 1136.15 1172.93 1098.19C1158.94 1059.56 1151.95 1012.61 1151.95 957.328C1151.95 902.05 1162.61 851.101 1183.92 804.481C1205.9 757.195 1235.53 719.899 1272.83 692.593C1346.75 637.981 1434.67 610.675 1536.56 610.675ZM2351.76 1041.24C2351.76 1115.17 2329.44 1176.11 2284.82 1224.06C2240.2 1272.01 2179.26 1295.99 2102.01 1295.99C2025.42 1295.99 1964.81 1272.01 1920.19 1224.06C1875.57 1176.11 1853.25 1115.17 1853.25 1041.24C1853.25 967.318 1875.57 906.379 1920.19 858.427C1964.81 810.475 2025.42 786.499 2102.01 786.499C2179.26 786.499 2240.2 810.475 2284.82 858.427C2329.44 906.379 2351.76 967.318 2351.76 1041.24ZM1962.15 1041.24C1962.15 1195.09 2008.77 1272.01 2102.01 1272.01C2195.91 1272.01 2242.86 1195.09 2242.86 1041.24C2242.86 966.652 2232.21 909.709 2210.9 870.415C2189.58 831.121 2153.62 811.474 2103 811.474C2052.39 811.474 2016.09 831.121 1994.11 870.415C1972.8 909.709 1962.15 966.652 1962.15 1041.24ZM2600.37 903.382C2630.34 826.126 2690.62 787.498 2781.19 787.498C2826.48 787.498 2863.11 801.151 2891.08 828.457C2919.06 855.097 2933.04 893.392 2933.04 943.342C2933.04 1029.26 2930.38 1133.48 2925.05 1256.03L2993.98 1261.02V1285H2773.2V1261.02L2827.15 1257.03C2832.48 1106.51 2835.14 1020.26 2835.14 998.287C2835.14 976.309 2834.81 959.659 2834.14 948.337C2833.47 936.349 2831.48 922.03 2828.15 905.38C2825.48 888.064 2821.15 874.411 2815.16 864.421C2800.51 839.779 2777.53 827.458 2746.23 827.458C2703.6 827.458 2668.64 845.107 2641.33 880.405C2614.03 915.703 2600.37 953.998 2600.37 995.29V1256.03L2675.3 1261.02V1285H2436.54V1261.02L2502.47 1256.03V833.452L2417.56 829.456V806.479L2596.38 794.491L2591.38 902.383L2600.37 903.382ZM3363.7 1181.1C3363.7 1183.1 3363.37 1185.43 3362.7 1188.1C3352.05 1220.73 3334.07 1247.04 3308.76 1267.02C3284.12 1286.33 3255.15 1295.99 3221.85 1295.99C3188.55 1295.99 3160.57 1286.67 3137.93 1268.02C3115.95 1248.7 3104.96 1211.41 3104.96 1156.13C3104.96 1140.81 3106.63 1029.92 3109.96 823.462H3041.03V797.488H3110.96L3111.96 650.635H3209.86L3206.86 797.488H3349.72V823.462H3206.86C3203.53 1038.58 3201.87 1164.45 3201.87 1201.08C3201.87 1245.71 3216.52 1268.02 3245.82 1268.02C3263.8 1268.02 3282.45 1257.69 3301.77 1237.05C3321.75 1216.4 3335.73 1193.09 3343.72 1167.12C3357.04 1167.12 3363.7 1171.78 3363.7 1181.1ZM3516.86 1177.11C3516.86 1220.4 3534.5 1246.04 3569.8 1254.03C3577.79 1256.03 3585.45 1257.03 3592.78 1257.03C3618.09 1257.03 3644.39 1246.37 3671.7 1225.06C3699.01 1203.08 3713.33 1173.78 3714.66 1137.15V1051.23C3582.79 1052.57 3516.86 1094.52 3516.86 1177.11ZM3556.82 1296.99C3518.85 1296.99 3486.22 1286.66 3458.91 1266.02C3432.27 1244.71 3418.95 1215.07 3418.95 1177.11C3419.62 1125.83 3445.26 1087.53 3495.88 1062.22C3547.16 1036.91 3620.09 1024.26 3714.66 1024.26V938.347C3714.66 853.765 3684.02 811.474 3622.75 811.474C3591.45 811.474 3566.14 824.461 3546.83 850.435C3533.51 868.417 3526.85 890.728 3526.85 917.368C3526.85 928.69 3528.18 940.678 3530.84 953.332C3521.52 959.992 3511.86 963.322 3501.87 963.322C3492.55 963.322 3483.22 961.324 3473.9 957.328C3452.59 949.336 3441.93 934.018 3441.93 911.374C3441.93 880.738 3452.92 855.43 3474.9 835.45C3510.86 802.816 3560.48 786.499 3623.75 786.499C3687.02 786.499 3732.97 800.152 3761.61 827.458C3790.25 854.098 3804.57 896.389 3804.57 954.331V1257.03L3888.48 1261.02L3889.48 1284L3722.65 1295.99L3713.66 1207.08C3683.02 1267.02 3630.74 1296.99 3556.82 1296.99ZM4188.88 786.499C4226.17 786.499 4262.14 794.491 4296.77 810.475C4316.08 819.133 4331.4 832.453 4342.72 850.435C4354.71 868.417 4360.71 889.396 4360.71 913.372C4360.71 937.348 4350.05 953.665 4328.74 962.323C4320.08 965.653 4310.76 967.318 4300.77 967.318C4291.44 967.318 4281.78 963.988 4271.79 957.328C4274.46 943.342 4275.79 927.025 4275.79 908.377C4275.79 889.063 4269.8 870.748 4257.81 853.432C4240.49 827.458 4215.85 814.471 4183.88 814.471C4091.31 814.471 4045.02 890.728 4045.02 1043.24C4045.02 1117.83 4055.68 1174.11 4076.99 1212.07C4098.97 1249.37 4134.27 1268.02 4182.88 1268.02C4244.82 1268.02 4294.44 1238.05 4331.73 1178.11C4346.39 1182.77 4353.71 1190.09 4353.71 1200.08C4353.71 1209.41 4347.39 1221.4 4334.73 1236.05C4322.74 1250.03 4301.43 1263.69 4270.8 1277.01C4240.83 1289.66 4206.19 1295.99 4166.9 1295.99C4098.3 1295.99 4042.69 1272.68 4000.07 1226.06C3958.11 1179.44 3937.13 1117.83 3937.13 1041.24C3937.13 964.654 3959.77 903.049 4005.06 856.429C4051.02 809.809 4112.29 786.499 4188.88 786.499ZM4745.13 1181.1C4745.13 1183.1 4744.8 1185.43 4744.13 1188.1C4733.48 1220.73 4715.5 1247.04 4690.19 1267.02C4665.55 1286.33 4636.58 1295.99 4603.28 1295.99C4569.98 1295.99 4542 1286.67 4519.36 1268.02C4497.38 1248.7 4486.39 1211.41 4486.39 1156.13C4486.39 1140.81 4488.06 1029.92 4491.39 823.462H4422.46V797.488H4492.39L4493.39 650.635H4591.29L4588.29 797.488H4731.15V823.462H4588.29C4584.96 1038.58 4583.3 1164.45 4583.3 1201.08C4583.3 1245.71 4597.95 1268.02 4627.25 1268.02C4645.23 1268.02 4663.88 1257.69 4683.2 1237.05C4703.18 1216.4 4717.16 1193.09 4725.15 1167.12C4738.47 1167.12 4745.13 1171.78 4745.13 1181.1Z" fill="#FEFEFE"/>
</svg>
