<svg width="13164" height="4293" viewBox="0 0 13164 4293" fill="none" xmlns="http://www.w3.org/2000/svg">
<path d="M10852.9 1171.75L10863.8 1209.62L10875.1 1171.75H10882.8V1215.94H10878.2V1175.31L10866.4 1213.75C10866.1 1214.58 10865.8 1215.17 10865.4 1215.5C10865 1215.79 10864.5 1215.94 10863.9 1215.94H10861.1L10849.8 1176.44V1215.94H10845.6V1178.25C10845.6 1177 10845.5 1176.08 10845.2 1175.5C10845 1174.92 10844.6 1174.52 10843.8 1174.31C10843.1 1174.1 10842.6 1173.92 10842.3 1173.75C10842.1 1173.58 10841.9 1173.29 10841.9 1172.88C10841.9 1172.12 10842.5 1171.75 10843.5 1171.75H10852.9ZM10889.7 1200.31C10889.7 1195.52 10890.9 1191.65 10893.3 1188.69C10895.8 1185.73 10899.1 1184.25 10903.4 1184.25C10907.6 1184.25 10911 1185.73 10913.4 1188.69C10915.8 1191.65 10917.1 1195.52 10917.1 1200.31C10917.1 1205.1 10915.8 1208.98 10913.4 1211.94C10911 1214.9 10907.6 1216.38 10903.4 1216.38C10899.1 1216.38 10895.8 1214.9 10893.3 1211.94C10890.9 1208.98 10889.7 1205.1 10889.7 1200.31ZM10894.7 1200.31C10894.7 1204.56 10895.5 1207.77 10897.1 1209.94C10898.8 1212.1 10900.9 1213.19 10903.4 1213.19C10905.9 1213.19 10907.9 1212.1 10909.6 1209.94C10911.2 1207.77 10912.1 1204.56 10912.1 1200.31C10912.1 1196.06 10911.2 1192.85 10909.6 1190.69C10907.9 1188.52 10905.9 1187.44 10903.4 1187.44C10900.9 1187.44 10898.8 1188.52 10897.1 1190.69C10895.5 1192.85 10894.7 1196.06 10894.7 1200.31ZM10947.2 1215.94H10942.7V1209.94C10942.1 1211.4 10941.1 1212.75 10939.7 1214C10937.8 1215.58 10935.5 1216.38 10932.8 1216.38C10930.5 1216.38 10928.4 1215.48 10926.7 1213.69C10925 1211.85 10924.1 1208.67 10924.1 1204.12V1191.56C10924.1 1190.31 10924 1189.38 10923.6 1188.75C10923.3 1188.12 10922.9 1187.73 10922.2 1187.56C10921.6 1187.4 10921.1 1187.23 10920.8 1187.06C10920.5 1186.9 10920.3 1186.6 10920.3 1186.19C10920.3 1185.44 10920.9 1185.06 10921.9 1185.06H10926.8C10928 1185.06 10928.6 1185.73 10928.6 1187.06V1204.5C10928.6 1207.29 10929.1 1209.31 10930.1 1210.56C10931 1211.81 10932.3 1212.44 10933.8 1212.44C10936.4 1212.44 10938.5 1211.27 10940.2 1208.94C10941.9 1206.65 10942.7 1203.08 10942.7 1198.25V1191.56C10942.7 1190.31 10942.5 1189.38 10942.2 1188.75C10941.9 1188.12 10941.4 1187.73 10940.8 1187.56C10940.1 1187.4 10939.6 1187.23 10939.3 1187.06C10939 1186.85 10938.9 1186.56 10938.9 1186.19C10938.9 1185.44 10939.4 1185.06 10940.5 1185.06H10945.4C10946.6 1185.06 10947.2 1185.73 10947.2 1187.06V1215.94ZM10960.6 1215.94H10956.2V1191.56C10956.2 1190.31 10956 1189.38 10955.7 1188.75C10955.4 1188.12 10954.9 1187.73 10954.2 1187.56C10953.6 1187.4 10953.1 1187.23 10952.8 1187.06C10952.5 1186.9 10952.3 1186.6 10952.3 1186.19C10952.3 1185.44 10952.9 1185.06 10953.9 1185.06H10958.8C10960 1185.06 10960.6 1185.73 10960.6 1187.06V1191.56C10961.4 1189.65 10962.7 1188 10964.6 1186.62C10966.4 1185.25 10968.5 1184.56 10970.9 1184.56C10973.2 1184.56 10975.2 1185.48 10976.9 1187.31C10978.5 1189.1 10979.3 1192.27 10979.3 1196.81V1215.94H10974.8V1196.5C10974.8 1193.67 10974.4 1191.65 10973.4 1190.44C10972.5 1189.23 10971.3 1188.62 10969.7 1188.62C10967.4 1188.62 10965.4 1189.88 10963.5 1192.38C10961.5 1194.92 10960.6 1198.4 10960.6 1202.81V1215.94ZM10993.6 1175.19V1185.06H11002V1188.19H10993.7V1208.62C10993.7 1210.25 10994 1211.42 10994.8 1212.12C10995.5 1212.83 10996.7 1213.19 10998.2 1213.19C10999 1213.19 10999.8 1213.17 11000.4 1213.12C11001.1 1213.08 11001.9 1212.98 11002.6 1212.81V1216C11001.9 1216.21 11001 1216.35 10999.8 1216.44C10998.6 1216.52 10997.7 1216.56 10997.1 1216.56C10995.3 1216.56 10993.8 1216.38 10992.8 1216C10991.7 1215.62 10990.9 1215.04 10990.4 1214.25C10989.8 1213.5 10989.4 1212.54 10989.3 1211.38C10989.2 1210.17 10989.1 1208.81 10989.1 1207.31V1188.19H10984.6V1185.06H10989.1V1179.56L10993.6 1175.19ZM11025.8 1211.5C11025.4 1212.58 11024.3 1213.67 11022.4 1214.75C11020.6 1215.83 11018.4 1216.38 11015.9 1216.38C11013.3 1216.38 11011.2 1215.62 11009.5 1214.12C11007.8 1212.58 11006.9 1210.54 11006.9 1208C11006.9 1204.58 11008.5 1201.9 11011.5 1199.94C11014.5 1197.94 11018.6 1196.94 11023.6 1196.94H11025.8V1195.12C11025.8 1192.67 11025.1 1190.77 11023.9 1189.44C11022.6 1188.1 11020.9 1187.44 11018.8 1187.44C11016.9 1187.44 11015.3 1187.92 11014.1 1188.88C11012.9 1189.79 11012.2 1191.06 11012.2 1192.69H11007.3C11007.3 1190.23 11008.4 1188.21 11010.5 1186.62C11012.7 1185.04 11015.5 1184.25 11018.9 1184.25C11022.5 1184.25 11025.3 1185.19 11027.3 1187.06C11029.3 1188.94 11030.3 1191.56 11030.3 1194.94V1215.94H11025.8V1211.5ZM11025.8 1200.31C11020.9 1200.19 11017.3 1200.77 11015 1202.06C11012.7 1203.35 11011.5 1205.12 11011.5 1207.38C11011.5 1209.25 11012 1210.62 11013.1 1211.5C11014.2 1212.33 11015.5 1212.75 11016.9 1212.75C11019.1 1212.75 11021.1 1211.98 11022.9 1210.44C11024.8 1208.9 11025.8 1206.94 11025.8 1204.56V1200.31ZM11043.8 1215.94H11039.2V1191.56C11039.2 1190.31 11039 1189.38 11038.8 1188.75C11038.5 1188.12 11038 1187.73 11037.2 1187.56C11036.6 1187.4 11036.1 1187.23 11035.8 1187.06C11035.6 1186.85 11035.4 1186.56 11035.4 1186.19C11035.4 1185.44 11036 1185.06 11037 1185.06H11041.9C11043.2 1185.06 11043.8 1185.73 11043.8 1187.06V1215.94ZM11044.6 1174.38C11044.6 1175.42 11044.2 1176.31 11043.4 1177.06C11042.7 1177.77 11041.9 1178.12 11040.9 1178.12C11039.8 1178.12 11038.9 1177.77 11038.2 1177.06C11037.5 1176.31 11037.1 1175.42 11037.1 1174.38C11037.1 1173.38 11037.5 1172.52 11038.2 1171.81C11038.9 1171.06 11039.8 1170.69 11040.9 1170.69C11041.9 1170.69 11042.7 1171.06 11043.4 1171.81C11044.2 1172.52 11044.6 1173.38 11044.6 1174.38ZM11057.5 1215.94H11053.1V1191.56C11053.1 1190.31 11053 1189.38 11052.6 1188.75C11052.3 1188.12 11051.8 1187.73 11051.1 1187.56C11050.5 1187.4 11050 1187.23 11049.7 1187.06C11049.4 1186.9 11049.2 1186.6 11049.2 1186.19C11049.2 1185.44 11049.8 1185.06 11050.9 1185.06H11055.7C11056.9 1185.06 11057.5 1185.73 11057.5 1187.06V1191.56C11058.3 1189.65 11059.7 1188 11061.5 1186.62C11063.3 1185.25 11065.4 1184.56 11067.8 1184.56C11070.2 1184.56 11072.2 1185.48 11073.8 1187.31C11075.4 1189.1 11076.2 1192.27 11076.2 1196.81V1215.94H11071.8V1196.5C11071.8 1193.67 11071.3 1191.65 11070.4 1190.44C11069.5 1189.23 11068.2 1188.62 11066.6 1188.62C11064.4 1188.62 11062.3 1189.88 11060.4 1192.38C11058.5 1194.92 11057.5 1198.4 11057.5 1202.81V1215.94ZM11101.4 1174.19C11100.8 1174.02 11100.4 1173.85 11100.1 1173.69C11099.9 1173.52 11099.8 1173.23 11099.8 1172.81C11099.8 1172.1 11100.3 1171.75 11101.4 1171.75H11106.9L11118.9 1208.44L11130.9 1171.75H11133.4C11134.1 1171.75 11134.5 1171.94 11134.7 1172.31C11134.9 1172.65 11134.9 1173.1 11134.7 1173.69L11120.5 1216.06H11116.9L11104.4 1179.19C11103.8 1177.52 11103.4 1176.33 11103 1175.62C11102.6 1174.92 11102.1 1174.44 11101.4 1174.19ZM11145.5 1215.94H11140.9V1191.56C11140.9 1190.31 11140.7 1189.38 11140.4 1188.75C11140.1 1188.12 11139.6 1187.73 11138.9 1187.56C11138.3 1187.4 11137.8 1187.23 11137.5 1187.06C11137.2 1186.85 11137.1 1186.56 11137.1 1186.19C11137.1 1185.44 11137.6 1185.06 11138.7 1185.06H11143.6C11144.9 1185.06 11145.5 1185.73 11145.5 1187.06V1215.94ZM11146.2 1174.38C11146.2 1175.42 11145.9 1176.31 11145.1 1177.06C11144.4 1177.77 11143.6 1178.12 11142.6 1178.12C11141.5 1178.12 11140.6 1177.77 11139.9 1177.06C11139.2 1176.31 11138.8 1175.42 11138.8 1174.38C11138.8 1173.38 11139.2 1172.52 11139.9 1171.81C11140.6 1171.06 11141.5 1170.69 11142.6 1170.69C11143.6 1170.69 11144.4 1171.06 11145.1 1171.81C11145.9 1172.52 11146.2 1173.38 11146.2 1174.38ZM11162.6 1201.5C11159.6 1200.42 11157.2 1199.12 11155.5 1197.62C11153.8 1196.08 11152.9 1194.31 11152.9 1192.31C11152.9 1189.77 11153.8 1187.75 11155.6 1186.25C11157.4 1184.75 11160 1183.96 11163.4 1183.88C11164.9 1183.83 11166.4 1183.96 11167.8 1184.25C11169.2 1184.5 11170.5 1184.83 11171.7 1185.25V1190C11170.6 1189.21 11169.4 1188.52 11167.9 1187.94C11166.5 1187.35 11165 1187.08 11163.4 1187.12C11161.6 1187.17 11160.1 1187.56 11159.1 1188.31C11158 1189.06 11157.4 1190.15 11157.4 1191.56C11157.3 1192.85 11158 1194.02 11159.3 1195.06C11160.7 1196.06 11162.6 1197 11165 1197.88C11168.1 1199.04 11170.3 1200.35 11171.7 1201.81C11173.1 1203.27 11173.8 1204.94 11173.8 1206.81C11173.8 1209.85 11172.7 1212.21 11170.7 1213.88C11168.7 1215.54 11165.9 1216.38 11162.3 1216.38C11160.6 1216.38 11158.9 1216.1 11157.3 1215.56C11155.7 1215.02 11154.5 1214.44 11153.7 1213.81C11153 1213.27 11152.6 1212.81 11152.4 1212.44C11152.3 1212.02 11152.4 1211.58 11152.6 1211.12C11152.9 1210.58 11153.3 1210.29 11153.9 1210.25C11154.4 1210.17 11154.9 1210.31 11155.4 1210.69C11156.2 1211.35 11157.2 1211.94 11158.5 1212.44C11159.8 1212.9 11161.1 1213.1 11162.4 1213.06C11165 1212.98 11166.9 1212.35 11167.9 1211.19C11169 1209.98 11169.5 1208.54 11169.3 1206.88C11169.2 1206 11168.7 1205.12 11167.8 1204.25C11166.8 1203.38 11165.1 1202.46 11162.6 1201.5ZM11186.4 1175.19V1185.06H11194.8V1188.19H11186.4V1208.62C11186.4 1210.25 11186.8 1211.42 11187.5 1212.12C11188.2 1212.83 11189.4 1213.19 11191 1213.19C11191.8 1213.19 11192.5 1213.17 11193.2 1213.12C11193.9 1213.08 11194.6 1212.98 11195.3 1212.81V1216C11194.6 1216.21 11193.7 1216.35 11192.5 1216.44C11191.3 1216.52 11190.5 1216.56 11189.9 1216.56C11188 1216.56 11186.6 1216.38 11185.5 1216C11184.5 1215.62 11183.7 1215.04 11183.1 1214.25C11182.5 1213.5 11182.2 1212.54 11182.1 1211.38C11181.9 1210.17 11181.9 1208.81 11181.9 1207.31V1188.19H11177.3V1185.06H11181.9V1179.56L11186.4 1175.19ZM11218.5 1211.5C11218.1 1212.58 11217 1213.67 11215.2 1214.75C11213.4 1215.83 11211.2 1216.38 11208.6 1216.38C11206.1 1216.38 11204 1215.62 11202.2 1214.12C11200.5 1212.58 11199.7 1210.54 11199.7 1208C11199.7 1204.58 11201.2 1201.9 11204.2 1199.94C11207.3 1197.94 11211.3 1196.94 11216.4 1196.94H11218.5V1195.12C11218.5 1192.67 11217.9 1190.77 11216.6 1189.44C11215.4 1188.1 11213.7 1187.44 11211.5 1187.44C11209.6 1187.44 11208.1 1187.92 11206.8 1188.88C11205.6 1189.79 11205 1191.06 11205 1192.69H11200.1C11200.1 1190.23 11201.1 1188.21 11203.2 1186.62C11205.4 1185.04 11208.2 1184.25 11211.7 1184.25C11215.3 1184.25 11218.1 1185.19 11220.1 1187.06C11222.1 1188.94 11223.1 1191.56 11223.1 1194.94V1215.94H11218.5V1211.5ZM11218.5 1200.31C11213.7 1200.19 11210.1 1200.77 11207.8 1202.06C11205.4 1203.35 11204.2 1205.12 11204.2 1207.38C11204.2 1209.25 11204.8 1210.62 11205.9 1211.5C11207 1212.33 11208.2 1212.75 11209.7 1212.75C11211.8 1212.75 11213.8 1211.98 11215.7 1210.44C11217.6 1208.9 11218.5 1206.94 11218.5 1204.56V1200.31ZM11286 1216.06H11281.8L11272.2 1178.44L11262.4 1216.06H11257.6L11250.8 1179.19C11250.5 1177.52 11250.1 1176.31 11249.6 1175.56C11249.1 1174.81 11248.5 1174.31 11247.8 1174.06C11247.3 1173.9 11246.9 1173.73 11246.6 1173.56C11246.3 1173.35 11246.2 1173.06 11246.2 1172.69C11246.2 1172.06 11246.7 1171.75 11247.8 1171.75H11254.2L11260.7 1207.5L11269.7 1171.75H11274.9L11283.9 1207.5L11290.1 1171.75H11293.1C11293.5 1171.75 11293.8 1171.83 11294 1172C11294.2 1172.17 11294.2 1172.5 11294.1 1173L11286 1216.06ZM11305.3 1215.94H11300.7V1191.56C11300.7 1190.31 11300.5 1189.38 11300.2 1188.75C11300 1188.12 11299.5 1187.73 11298.8 1187.56C11298.1 1187.4 11297.6 1187.23 11297.3 1187.06C11297.1 1186.85 11296.9 1186.56 11296.9 1186.19C11296.9 1185.44 11297.5 1185.06 11298.5 1185.06H11303.4C11304.7 1185.06 11305.3 1185.73 11305.3 1187.06V1215.94ZM11306.1 1174.38C11306.1 1175.42 11305.7 1176.31 11304.9 1177.06C11304.2 1177.77 11303.4 1178.12 11302.4 1178.12C11301.3 1178.12 11300.4 1177.77 11299.7 1177.06C11299 1176.31 11298.6 1175.42 11298.6 1174.38C11298.6 1173.38 11299 1172.52 11299.7 1171.81C11300.4 1171.06 11301.3 1170.69 11302.4 1170.69C11303.4 1170.69 11304.2 1171.06 11304.9 1171.81C11305.7 1172.52 11306.1 1173.38 11306.1 1174.38ZM11319 1215.94H11314.6V1191.56C11314.6 1190.31 11314.5 1189.38 11314.1 1188.75C11313.8 1188.12 11313.3 1187.73 11312.6 1187.56C11312 1187.4 11311.5 1187.23 11311.2 1187.06C11310.9 1186.9 11310.8 1186.6 11310.8 1186.19C11310.8 1185.44 11311.3 1185.06 11312.4 1185.06H11317.2C11318.4 1185.06 11319 1185.73 11319 1187.06V1191.56C11319.8 1189.65 11321.2 1188 11323 1186.62C11324.8 1185.25 11326.9 1184.56 11329.3 1184.56C11331.7 1184.56 11333.7 1185.48 11335.3 1187.31C11336.9 1189.1 11337.8 1192.27 11337.8 1196.81V1215.94H11333.2V1196.5C11333.2 1193.67 11332.8 1191.65 11331.9 1190.44C11331 1189.23 11329.7 1188.62 11328.1 1188.62C11325.9 1188.62 11323.8 1189.88 11321.9 1192.38C11320 1194.92 11319 1198.4 11319 1202.81V1215.94ZM11348.9 1200.62C11348.9 1204.54 11349.6 1207.6 11351.1 1209.81C11352.7 1212.02 11354.6 1213.12 11356.9 1213.12C11359.1 1213.12 11360.9 1212.04 11362.4 1209.88C11363.8 1207.67 11364.6 1204.79 11364.6 1201.25V1197.12C11364.6 1194.25 11363.8 1191.98 11362.2 1190.31C11360.6 1188.6 11358.8 1187.75 11356.6 1187.75C11354.4 1187.75 11352.6 1188.85 11351.1 1191.06C11349.6 1193.23 11348.9 1196.42 11348.9 1200.62ZM11364.6 1212C11362.7 1214.92 11360 1216.38 11356.6 1216.38C11352.7 1216.38 11349.7 1214.9 11347.5 1211.94C11345.3 1208.94 11344.2 1205.1 11344.2 1200.44C11344.2 1195.44 11345.3 1191.5 11347.4 1188.62C11349.6 1185.71 11352.5 1184.25 11356.1 1184.25C11359.7 1184.25 11362.5 1185.44 11364.6 1187.81V1176.81C11364.6 1175.56 11364.5 1174.65 11364.1 1174.06C11363.8 1173.44 11363.4 1173.04 11362.7 1172.88C11362 1172.71 11361.5 1172.54 11361.2 1172.38C11360.9 1172.17 11360.8 1171.85 11360.8 1171.44C11360.8 1170.73 11361.4 1170.38 11362.4 1170.38H11367.2C11368.5 1170.38 11369.1 1171.02 11369.1 1172.31V1215.94H11364.6V1212ZM11376.1 1200.31C11376.1 1195.52 11377.3 1191.65 11379.8 1188.69C11382.2 1185.73 11385.6 1184.25 11389.8 1184.25C11394.1 1184.25 11397.4 1185.73 11399.8 1188.69C11402.3 1191.65 11403.5 1195.52 11403.5 1200.31C11403.5 1205.1 11402.3 1208.98 11399.8 1211.94C11397.4 1214.9 11394.1 1216.38 11389.8 1216.38C11385.6 1216.38 11382.2 1214.9 11379.8 1211.94C11377.3 1208.98 11376.1 1205.1 11376.1 1200.31ZM11381.1 1200.31C11381.1 1204.56 11381.9 1207.77 11383.6 1209.94C11385.2 1212.1 11387.3 1213.19 11389.8 1213.19C11392.3 1213.19 11394.4 1212.1 11396 1209.94C11397.7 1207.77 11398.5 1204.56 11398.5 1200.31C11398.5 1196.06 11397.7 1192.85 11396 1190.69C11394.4 1188.52 11392.3 1187.44 11389.8 1187.44C11387.3 1187.44 11385.2 1188.52 11383.6 1190.69C11381.9 1192.85 11381.1 1196.06 11381.1 1200.31ZM11436.6 1216.12H11433.3L11426.1 1191.81L11419.2 1216.12H11416.1L11409.2 1189.94C11409 1189.27 11408.8 1188.71 11408.6 1188.25C11408.4 1187.75 11408.1 1187.4 11407.6 1187.19C11407 1186.98 11406.6 1186.81 11406.3 1186.69C11406.1 1186.52 11405.9 1186.27 11405.9 1185.94C11405.9 1185.35 11406.4 1185.06 11407.4 1185.06H11412.2L11418 1207.94L11424.1 1185.38H11428.2L11435 1207.94L11440.9 1185.06H11443.2C11443.7 1185.06 11444 1185.17 11444.2 1185.38C11444.4 1185.58 11444.5 1185.96 11444.3 1186.5L11436.6 1216.12ZM11504.9 1216.06H11500.6L11491.1 1178.44L11481.3 1216.06H11476.5L11469.7 1179.19C11469.4 1177.52 11468.9 1176.31 11468.4 1175.56C11468 1174.81 11467.4 1174.31 11466.7 1174.06C11466.1 1173.9 11465.7 1173.73 11465.4 1173.56C11465.2 1173.35 11465.1 1173.06 11465.1 1172.69C11465.1 1172.06 11465.6 1171.75 11466.7 1171.75H11473.1L11479.6 1207.5L11488.6 1171.75H11493.8L11502.8 1207.5L11509 1171.75H11512C11512.4 1171.75 11512.7 1171.83 11512.9 1172C11513 1172.17 11513.1 1172.5 11513 1173L11504.9 1216.06ZM11534.9 1211.5C11534.5 1212.58 11533.4 1213.67 11531.6 1214.75C11529.7 1215.83 11527.5 1216.38 11525 1216.38C11522.5 1216.38 11520.3 1215.62 11518.6 1214.12C11516.9 1212.58 11516.1 1210.54 11516.1 1208C11516.1 1204.58 11517.6 1201.9 11520.6 1199.94C11523.7 1197.94 11527.7 1196.94 11532.8 1196.94H11534.9V1195.12C11534.9 1192.67 11534.2 1190.77 11533 1189.44C11531.8 1188.1 11530 1187.44 11527.9 1187.44C11526 1187.44 11524.4 1187.92 11523.2 1188.88C11522 1189.79 11521.4 1191.06 11521.4 1192.69H11516.4C11516.4 1190.23 11517.5 1188.21 11519.6 1186.62C11521.8 1185.04 11524.6 1184.25 11528.1 1184.25C11531.6 1184.25 11534.4 1185.19 11536.4 1187.06C11538.4 1188.94 11539.4 1191.56 11539.4 1194.94V1215.94H11534.9V1211.5ZM11534.9 1200.31C11530 1200.19 11526.5 1200.77 11524.1 1202.06C11521.8 1203.35 11520.6 1205.12 11520.6 1207.38C11520.6 1209.25 11521.2 1210.62 11522.2 1211.5C11523.3 1212.33 11524.6 1212.75 11526.1 1212.75C11528.2 1212.75 11530.2 1211.98 11532.1 1210.44C11533.9 1208.9 11534.9 1206.94 11534.9 1204.56V1200.31ZM11555.6 1201.5C11552.6 1200.42 11550.3 1199.12 11548.6 1197.62C11546.9 1196.08 11546 1194.31 11546 1192.31C11546 1189.77 11546.9 1187.75 11548.7 1186.25C11550.5 1184.75 11553.1 1183.96 11556.5 1183.88C11558 1183.83 11559.4 1183.96 11560.8 1184.25C11562.2 1184.5 11563.5 1184.83 11564.8 1185.25V1190C11563.7 1189.21 11562.5 1188.52 11561 1187.94C11559.5 1187.35 11558 1187.08 11556.5 1187.12C11554.7 1187.17 11553.2 1187.56 11552.1 1188.31C11551 1189.06 11550.5 1190.15 11550.4 1191.56C11550.4 1192.85 11551 1194.02 11552.4 1195.06C11553.8 1196.06 11555.6 1197 11558.1 1197.88C11561.1 1199.04 11563.4 1200.35 11564.8 1201.81C11566.1 1203.27 11566.8 1204.94 11566.8 1206.81C11566.8 1209.85 11565.8 1212.21 11563.8 1213.88C11561.8 1215.54 11559 1216.38 11555.4 1216.38C11553.6 1216.38 11552 1216.1 11550.4 1215.56C11548.8 1215.02 11547.6 1214.44 11546.8 1213.81C11546 1213.27 11545.6 1212.81 11545.5 1212.44C11545.4 1212.02 11545.4 1211.58 11545.7 1211.12C11546 1210.58 11546.4 1210.29 11546.9 1210.25C11547.5 1210.17 11548 1210.31 11548.4 1210.69C11549.3 1211.35 11550.3 1211.94 11551.6 1212.44C11552.9 1212.9 11554.1 1213.1 11555.4 1213.06C11558.1 1212.98 11559.9 1212.35 11561 1211.19C11562.1 1209.98 11562.5 1208.54 11562.4 1206.88C11562.3 1206 11561.8 1205.12 11560.8 1204.25C11559.9 1203.38 11558.1 1202.46 11555.6 1201.5ZM11578.4 1215.94H11573.9V1176.81C11573.9 1175.56 11573.8 1174.65 11573.4 1174.06C11573.1 1173.48 11572.7 1173.08 11572 1172.88C11571.4 1172.67 11570.9 1172.48 11570.6 1172.31C11570.3 1172.15 11570.1 1171.85 11570.1 1171.44C11570.1 1170.73 11570.7 1170.38 11571.8 1170.38H11576.6C11577.8 1170.38 11578.4 1171.02 11578.4 1172.31V1191.44C11579.3 1189.56 11580.6 1187.96 11582.4 1186.62C11584.2 1185.25 11586.3 1184.56 11588.7 1184.56C11591.1 1184.56 11593.1 1185.48 11594.7 1187.31C11596.3 1189.1 11597.1 1192.27 11597.1 1196.81V1215.94H11592.6V1196.5C11592.6 1193.67 11592.2 1191.65 11591.2 1190.44C11590.3 1189.23 11589.1 1188.62 11587.5 1188.62C11585.2 1188.62 11583.2 1189.88 11581.3 1192.38C11579.7 1194.54 11578.7 1197.38 11578.4 1200.88V1215.94ZM11611.1 1215.94H11606.4V1191.56C11606.4 1190.31 11606.3 1189.38 11606 1188.75C11605.7 1188.12 11605.2 1187.73 11604.5 1187.56C11603.8 1187.4 11603.4 1187.23 11603.1 1187.06C11602.8 1186.85 11602.7 1186.56 11602.7 1186.19C11602.7 1185.44 11603.2 1185.06 11604.2 1185.06H11609.2C11610.4 1185.06 11611.1 1185.73 11611.1 1187.06V1215.94ZM11611.8 1174.38C11611.8 1175.42 11611.4 1176.31 11610.7 1177.06C11610 1177.77 11609.1 1178.12 11608.1 1178.12C11607.1 1178.12 11606.2 1177.77 11605.4 1177.06C11604.7 1176.31 11604.4 1175.42 11604.4 1174.38C11604.4 1173.38 11604.7 1172.52 11605.4 1171.81C11606.2 1171.06 11607.1 1170.69 11608.1 1170.69C11609.1 1170.69 11610 1171.06 11610.7 1171.81C11611.4 1172.52 11611.8 1173.38 11611.8 1174.38ZM11624.8 1215.94H11620.4V1191.56C11620.4 1190.31 11620.2 1189.38 11619.9 1188.75C11619.5 1188.12 11619 1187.73 11618.4 1187.56C11617.8 1187.4 11617.3 1187.23 11616.9 1187.06C11616.6 1186.9 11616.5 1186.6 11616.5 1186.19C11616.5 1185.44 11617 1185.06 11618.1 1185.06H11622.9C11624.1 1185.06 11624.8 1185.73 11624.8 1187.06V1191.56C11625.6 1189.65 11626.9 1188 11628.8 1186.62C11630.5 1185.25 11632.6 1184.56 11635.1 1184.56C11637.4 1184.56 11639.4 1185.48 11641.1 1187.31C11642.7 1189.1 11643.5 1192.27 11643.5 1196.81V1215.94H11639V1196.5C11639 1193.67 11638.5 1191.65 11637.6 1190.44C11636.7 1189.23 11635.5 1188.62 11633.9 1188.62C11631.6 1188.62 11629.6 1189.88 11627.7 1192.38C11625.7 1194.92 11624.8 1198.4 11624.8 1202.81V1215.94ZM11654.6 1200.56C11654.6 1204.02 11655.3 1206.73 11656.8 1208.69C11658.4 1210.6 11660.2 1211.56 11662.5 1211.56C11664.6 1211.56 11666.4 1210.71 11668 1209C11669.6 1207.29 11670.4 1204.71 11670.4 1201.25V1197.12C11670.4 1194.25 11669.6 1191.98 11668 1190.31C11666.4 1188.6 11664.5 1187.75 11662.4 1187.75C11660.2 1187.75 11658.3 1188.79 11656.8 1190.88C11655.3 1192.96 11654.6 1196.19 11654.6 1200.56ZM11670.4 1210.88C11668.4 1213.5 11665.8 1214.81 11662.4 1214.81C11658.5 1214.81 11655.5 1213.42 11653.2 1210.62C11651.1 1207.83 11650 1204.44 11650 1200.44C11650 1195.44 11651.1 1191.5 11653.2 1188.62C11655.4 1185.71 11658.2 1184.25 11661.8 1184.25C11665.4 1184.25 11668.3 1185.71 11670.4 1188.62V1188C11670.4 1186.04 11671.3 1185.06 11672.9 1185.06H11676.9C11678 1185.06 11678.6 1185.4 11678.6 1186.06C11678.6 1186.44 11678.3 1186.71 11677.8 1186.88C11677.3 1187.04 11676.9 1187.19 11676.4 1187.31C11675.9 1187.44 11675.5 1187.73 11675.2 1188.19C11675 1188.6 11674.9 1189.62 11674.9 1191.25V1214.62C11674.9 1218.42 11673.9 1221.38 11671.8 1223.5C11669.8 1225.62 11666.8 1226.69 11662.6 1226.69C11658.7 1226.69 11655.8 1225.92 11654.1 1224.38C11652.5 1222.83 11651.5 1220.92 11651.3 1218.62H11655.9C11656 1219.96 11656.6 1221.1 11657.7 1222.06C11658.8 1223.06 11660.6 1223.56 11663.1 1223.56C11665.2 1223.56 11667 1222.83 11668.4 1221.38C11669.8 1219.92 11670.4 1217.9 11670.4 1215.31V1210.88Z" fill="white"/>
<path d="M13139.8 24.4375H24.4375V4268.57H13139.8V24.4375Z" fill="#FF4400" stroke="white" stroke-width="47.1257"/>
<path d="M3644.56 1365.67L4084.34 1383.67L4096.34 1747.48H4024.37L3956.41 1485.61C3864.45 1454.96 3775.83 1439.64 3690.54 1439.64C3531.95 1439.64 3403.35 1492.28 3304.73 1597.56C3206.11 1701.51 3156.81 1856.1 3156.81 2061.33C3156.81 2265.22 3204.78 2415.15 3300.73 2511.1C3396.69 2607.05 3517.29 2655.03 3662.55 2655.03C3809.15 2655.03 3915.09 2639.04 3980.39 2607.05L4054.36 2379.17H4118.32L4106.33 2673.02C3939.75 2709 3793.82 2726.99 3668.55 2726.99C3544.61 2726.99 3438.66 2717 3350.71 2697.01C3262.75 2675.69 3180.13 2641.7 3102.83 2595.06C3025.54 2548.42 2964.9 2481.12 2920.92 2393.16C2878.28 2305.2 2856.96 2199.92 2856.96 2077.32C2856.96 1954.71 2878.94 1846.77 2922.92 1753.48C2968.23 1658.86 3028.87 1584.23 3104.83 1529.59C3256.76 1420.31 3436.67 1365.67 3644.56 1365.67ZM5185.29 2593.06C5092 2689.01 4964.73 2736.99 4803.48 2736.99C4642.23 2736.99 4514.96 2689.01 4421.67 2593.06C4328.39 2497.11 4281.74 2375.17 4281.74 2227.24C4281.74 2079.32 4328.39 1957.38 4421.67 1861.43C4514.96 1765.47 4642.23 1717.5 4803.48 1717.5C4964.73 1717.5 5092 1765.47 5185.29 1861.43C5278.58 1957.38 5325.22 2079.32 5325.22 2227.24C5325.22 2375.17 5278.58 2497.11 5185.29 2593.06ZM4559.6 2227.24C4559.6 2535.09 4640.9 2689.01 4803.48 2689.01C4966.07 2689.01 5047.36 2535.09 5047.36 2227.24C5047.36 2076.65 5029.37 1962.71 4993.39 1885.41C4957.4 1806.79 4894.1 1767.47 4803.48 1767.47C4712.86 1767.47 4649.56 1806.79 4613.58 1885.41C4577.59 1962.71 4559.6 2076.65 4559.6 2227.24ZM6251.98 2657.03L6263.97 2023.35C6263.97 1944.72 6253.97 1887.41 6233.98 1851.43C6213.99 1815.45 6174.01 1797.46 6114.04 1797.46C6054.07 1797.46 5995.44 1833.44 5938.13 1905.4C5882.16 1976.04 5852.84 2037.34 5850.18 2089.31V2657.03L6000.1 2669.02V2715H5464.37V2669.02L5596.3 2657.03V1805.45L5432.39 1797.46V1755.48L5842.18 1731.49L5832.19 1935.39H5852.18C5888.16 1868.76 5936.8 1817.45 5998.1 1781.47C6059.41 1744.15 6125.37 1725.49 6196 1725.49C6409.23 1725.49 6515.84 1828.11 6515.84 2033.34C6515.84 2181.27 6511.18 2389.16 6501.85 2657.03L6639.78 2669.02V2715H6156.02V2669.02L6251.98 2657.03ZM7102.99 2736.99C6975.05 2736.99 6893.76 2692.34 6859.11 2603.06C6844.45 2564.41 6837.12 2515.77 6837.12 2457.13C6837.12 2235.91 6840.45 2014.02 6847.12 1791.46H6711.18V1739.49H6849.11L6851.11 1445.63H7106.99L7100.99 1739.49H7380.85V1791.46H7100.99L7096.99 1953.38C7092.99 2169.27 7090.99 2367.17 7090.99 2547.08C7090.99 2599.06 7096.32 2634.37 7106.99 2653.03C7118.98 2671.69 7139.64 2681.02 7168.95 2681.02C7199.61 2681.02 7232.92 2660.36 7268.9 2619.05C7306.22 2576.4 7332.87 2525.76 7348.86 2467.12C7375.52 2467.12 7388.84 2476.45 7388.84 2495.11C7388.84 2499.11 7388.18 2503.77 7386.85 2509.1C7365.52 2578.4 7328.87 2633.71 7276.9 2675.02C7226.26 2716.33 7168.29 2736.99 7102.99 2736.99ZM8056.7 2247.23C7902.11 2247.23 7804.82 2287.88 7764.84 2369.17C7747.52 2403.82 7738.86 2447.13 7738.86 2499.11C7738.86 2588.4 7769.51 2640.37 7830.81 2655.03C7840.14 2657.7 7850.13 2659.03 7860.8 2659.03C7903.44 2659.03 7946.09 2637.04 7988.73 2593.06C8031.38 2547.75 8054.03 2489.78 8056.7 2419.15V2247.23ZM7736.86 2051.33C7707.54 2071.32 7676.89 2081.32 7644.9 2081.32C7612.92 2081.32 7585.6 2070.66 7562.94 2049.33C7540.29 2028.01 7528.96 1996.69 7528.96 1955.38C7528.96 1912.73 7541.62 1874.75 7566.94 1841.44C7592.26 1808.12 7624.91 1783.47 7664.89 1767.47C7743.52 1734.16 7818.15 1717.5 7888.78 1717.5C8046.04 1717.5 8153.32 1745.48 8210.62 1801.46C8267.93 1856.1 8296.58 1940.72 8296.58 2055.33V2657.03L8464.49 2669.02V2713L8082.68 2736.99L8064.69 2569.07C8002.06 2682.35 7894.11 2738.99 7740.86 2738.99C7671.56 2738.99 7611.59 2718.33 7560.95 2677.02C7511.64 2634.37 7486.98 2575.07 7486.98 2499.11C7488.32 2397.83 7538.96 2321.86 7638.91 2271.22C7738.86 2219.25 7878.12 2193.26 8056.7 2193.26V2021.35C8056.7 1940.05 8045.37 1877.42 8022.71 1833.44C8000.06 1789.46 7958.08 1767.47 7896.78 1767.47C7835.47 1767.47 7789.5 1792.79 7758.85 1843.44C7738.86 1876.75 7728.86 1912.07 7728.86 1949.38C7728.86 1986.7 7731.53 2020.68 7736.86 2051.33ZM9203.19 2063.33C9209.85 2036.67 9213.18 2006.69 9213.18 1973.37C9213.18 1938.72 9203.19 1903.41 9183.2 1867.42C9153.88 1808.79 9109.23 1779.47 9049.26 1779.47C8889.34 1779.47 8809.38 1930.06 8809.38 2231.24C8809.38 2531.09 8891.34 2681.02 9055.26 2681.02C9179.2 2681.02 9278.48 2621.05 9353.11 2501.11C9382.43 2510.44 9397.09 2525.09 9397.09 2545.08C9397.09 2563.74 9384.43 2587.73 9359.11 2617.05C9335.12 2645.03 9292.48 2672.35 9231.17 2699.01C9171.2 2724.33 9101.9 2736.99 9023.28 2736.99C8872.69 2736.99 8753.41 2691.01 8665.46 2599.06C8578.83 2505.77 8535.52 2381.83 8535.52 2227.24C8535.52 2071.32 8580.83 1947.38 8671.45 1855.43C8762.07 1763.48 8889.34 1717.5 9053.26 1717.5C9103.9 1717.5 9153.88 1724.16 9203.19 1737.49C9252.5 1749.48 9299.14 1776.14 9343.12 1817.45C9387.09 1858.76 9409.08 1908.74 9409.08 1967.37C9409.08 2024.68 9383.1 2061.99 9331.12 2079.32C9312.47 2085.98 9291.81 2089.31 9269.15 2089.31C9246.5 2089.31 9224.51 2080.65 9203.19 2063.33ZM9900.42 2736.99C9772.48 2736.99 9691.19 2692.34 9656.54 2603.06C9641.88 2564.41 9634.55 2515.77 9634.55 2457.13C9634.55 2235.91 9637.88 2014.02 9644.54 1791.46H9508.61V1739.49H9646.54L9648.54 1445.63H9904.41L9898.42 1739.49H10178.3V1791.46H9898.42L9894.42 1953.38C9890.42 2169.27 9888.42 2367.17 9888.42 2547.08C9888.42 2599.06 9893.75 2634.37 9904.41 2653.03C9916.41 2671.69 9937.06 2681.02 9966.38 2681.02C9997.03 2681.02 10030.4 2660.36 10066.3 2619.05C10103.6 2576.4 10130.3 2525.76 10146.3 2467.12C10172.9 2467.12 10186.3 2476.45 10186.3 2495.11C10186.3 2499.11 10185.6 2503.77 10184.3 2509.1C10163 2578.4 10126.3 2633.71 10074.3 2675.02C10023.7 2716.33 9965.72 2736.99 9900.42 2736.99Z" fill="#FEFEFE"/>
</svg>
