<svg width="4800" height="4800" viewBox="0 0 4800 4800" fill="none" xmlns="http://www.w3.org/2000/svg">
<circle cx="2400" cy="2400" r="2345.5" fill="#DC6827" stroke="white" stroke-width="109"/>
<line x1="3743.68" y1="586.897" x2="831.682" y2="4298.9" stroke="white" stroke-width="139"/>
<path d="M1924.48 1947.01C1901.83 1951.67 1873.86 1955.33 1840.56 1958C1807.93 1961.33 1777.62 1962.99 1749.65 1962.99C1665.07 1962.99 1602.46 1952.67 1561.84 1932.02C1521.88 1911.38 1495.24 1877.08 1481.92 1829.13C1468.6 1781.17 1461.94 1708.58 1461.94 1611.34C1461.94 1515.44 1468.6 1443.51 1481.92 1395.56C1495.24 1346.94 1521.88 1312.31 1561.84 1291.66C1602.46 1270.35 1665.07 1259.7 1749.65 1259.7C1778.29 1259.7 1808.59 1261.36 1840.56 1264.69C1872.53 1268.02 1899.17 1272.35 1920.48 1277.68V1392.56C1862.54 1385.9 1817.58 1382.57 1785.61 1382.57C1725.01 1382.57 1683.05 1387.23 1659.74 1396.56C1636.43 1405.22 1621.45 1424.2 1614.79 1453.5C1608.13 1482.81 1604.8 1535.42 1604.8 1611.34C1604.8 1687.27 1608.13 1739.88 1614.79 1769.19C1621.45 1798.49 1636.43 1817.8 1659.74 1827.13C1683.05 1835.79 1725.01 1840.11 1785.61 1840.11C1836.23 1840.11 1882.52 1836.78 1924.48 1830.12V1947.01Z" fill="white"/>
<path d="M3166.48 3256.01C3143.83 3260.67 3115.86 3264.33 3082.56 3267C3049.93 3270.33 3019.62 3271.99 2991.65 3271.99C2907.07 3271.99 2844.46 3261.67 2803.84 3241.02C2763.88 3220.38 2737.24 3186.08 2723.92 3138.13C2710.6 3090.17 2703.94 3017.58 2703.94 2920.34C2703.94 2824.44 2710.6 2752.51 2723.92 2704.56C2737.24 2655.94 2763.88 2621.31 2803.84 2600.66C2844.46 2579.35 2907.07 2568.7 2991.65 2568.7C3020.29 2568.7 3050.59 2570.36 3082.56 2573.69C3114.53 2577.02 3141.17 2581.35 3162.48 2586.68V2701.56C3104.54 2694.9 3059.58 2691.57 3027.61 2691.57C2967.01 2691.57 2925.05 2696.23 2901.74 2705.56C2878.43 2714.22 2863.45 2733.2 2856.79 2762.5C2850.13 2791.81 2846.8 2844.42 2846.8 2920.34C2846.8 2996.27 2850.13 3048.88 2856.79 3078.19C2863.45 3107.49 2878.43 3126.8 2901.74 3136.13C2925.05 3144.79 2967.01 3149.11 3027.61 3149.11C3078.23 3149.11 3124.52 3145.78 3166.48 3139.12V3256.01Z" fill="white"/>
</svg>
