<svg width="2548" height="2548" viewBox="0 0 2548 2548" fill="none" xmlns="http://www.w3.org/2000/svg">
<circle cx="1274" cy="1274" r="1231" fill="#DC6827" stroke="white" stroke-width="86"/>
<line x1="1824.69" y1="446.404" x2="672.694" y2="1950.4" stroke="white" stroke-width="100"/>
<path d="M1161.74 1121.61C1101.58 1141.12 1036.54 1150.88 966.624 1150.88C722.728 1150.88 600.779 1029.74 600.779 787.472C600.779 558.209 722.728 443.578 966.624 443.578C1036.54 443.578 1101.58 453.334 1161.74 472.846V550.893C1101.58 528.129 1039.79 516.747 976.38 516.747C786.141 516.747 691.021 606.989 691.021 787.472C691.021 980.963 786.141 1077.71 976.38 1077.71C1039.79 1077.71 1101.58 1066.33 1161.74 1043.56V1121.61Z" fill="white"/>
<path d="M1837.74 2025.61C1777.58 2045.12 1712.54 2054.88 1642.62 2054.88C1398.73 2054.88 1276.78 1933.74 1276.78 1691.47C1276.78 1462.21 1398.73 1347.58 1642.62 1347.58C1712.54 1347.58 1777.58 1357.33 1837.74 1376.85V1454.89C1777.58 1432.13 1715.79 1420.75 1652.38 1420.75C1462.14 1420.75 1367.02 1510.99 1367.02 1691.47C1367.02 1884.96 1462.14 1981.71 1652.38 1981.71C1715.79 1981.71 1777.58 1970.33 1837.74 1947.56V2025.61Z" fill="white"/>
</svg>
