<svg width="4036" height="4036" viewBox="0 0 4036 4036" fill="none" xmlns="http://www.w3.org/2000/svg">
<circle cx="2018" cy="2018" r="1963.5" fill="#DC6827" stroke="white" stroke-width="109"/>
<line x1="3156.52" y1="500.311" x2="708.011" y2="3621.48" stroke="white" stroke-width="139"/>
<path d="M1701.64 1816.33C1679 1820.99 1651.03 1824.66 1617.73 1827.32C1585.09 1830.65 1554.79 1832.32 1526.82 1832.32C1442.24 1832.32 1379.63 1821.99 1339.01 1801.35C1299.05 1780.7 1272.41 1746.4 1259.09 1698.45C1245.77 1650.5 1239.11 1577.9 1239.11 1480.67C1239.11 1384.76 1245.77 1312.84 1259.09 1264.88C1272.41 1216.27 1299.05 1181.63 1339.01 1160.99C1379.63 1139.68 1442.24 1129.02 1526.82 1129.02C1555.46 1129.02 1585.76 1130.69 1617.73 1134.02C1649.69 1137.35 1676.33 1141.67 1697.65 1147V1261.89C1639.7 1255.23 1594.75 1251.9 1562.78 1251.9C1502.18 1251.9 1460.22 1256.56 1436.91 1265.88C1413.6 1274.54 1398.61 1293.52 1391.95 1322.83C1385.29 1352.13 1381.96 1404.74 1381.96 1480.67C1381.96 1556.59 1385.29 1609.21 1391.95 1638.51C1398.61 1667.81 1413.6 1687.13 1436.91 1696.45C1460.22 1705.11 1502.18 1709.44 1562.78 1709.44C1613.4 1709.44 1659.68 1706.11 1701.64 1699.45V1816.33Z" fill="white"/>
<path d="M2745.96 2916.98C2723.31 2921.65 2695.34 2925.31 2662.04 2927.97C2629.41 2931.3 2599.1 2932.97 2571.13 2932.97C2486.55 2932.97 2423.94 2922.65 2383.32 2902C2343.36 2881.35 2316.72 2847.05 2303.4 2799.1C2290.08 2751.15 2283.42 2678.56 2283.42 2581.32C2283.42 2485.42 2290.08 2413.49 2303.4 2365.54C2316.72 2316.92 2343.36 2282.29 2383.32 2261.64C2423.94 2240.33 2486.55 2229.67 2571.13 2229.67C2599.77 2229.67 2630.07 2231.34 2662.04 2234.67C2694.01 2238 2720.65 2242.33 2741.96 2247.65V2362.54C2684.02 2355.88 2639.06 2352.55 2607.09 2352.55C2546.49 2352.55 2504.53 2357.21 2481.22 2366.54C2457.91 2375.19 2442.93 2394.17 2436.27 2423.48C2429.61 2452.78 2426.28 2505.4 2426.28 2581.32C2426.28 2657.24 2429.61 2709.86 2436.27 2739.16C2442.93 2768.47 2457.91 2787.78 2481.22 2797.1C2504.53 2805.76 2546.49 2810.09 2607.09 2810.09C2657.71 2810.09 2704 2806.76 2745.96 2800.1V2916.98Z" fill="white"/>
</svg>
