<?xml version="1.0" encoding="UTF-8"?>
<svg xmlns="http://www.w3.org/2000/svg" xmlns:xlink="http://www.w3.org/1999/xlink" width="198pt" height="66pt" viewBox="0 0 198 66" version="1.1">
<g id="surface1">
<path style="fill-rule:nonzero;fill:rgb(88.235294%,51.764706%,25.490196%);fill-opacity:1;stroke-width:47.1257;stroke-linecap:butt;stroke-linejoin:miter;stroke:rgb(100%,100%,100%);stroke-opacity:1;stroke-miterlimit:4;" d="M 24.462757 24.493015 L 5965.840066 24.493015 L 5965.840066 1964.622433 L 24.462757 1964.622433 Z M 24.462757 24.493015 " transform="matrix(0.0330541,0,0,0.0331727,0,0)"/>
<path style=" stroke:none;fill-rule:nonzero;fill:rgb(99.607843%,99.607843%,99.607843%);fill-opacity:1;" d="M 50.789062 20.257812 C 50.789062 20.257812 53.058594 20.355469 57.59375 20.554688 L 57.789062 26.585938 L 56.734375 26.585938 L 55.609375 22.246094 C 54.421875 21.738281 53.011719 21.484375 51.382812 21.484375 C 48.71875 21.484375 46.507812 22.367188 44.746094 24.136719 C 43.007812 25.878906 42.136719 28.433594 42.136719 31.789062 C 42.136719 35.148438 42.984375 37.632812 44.679688 39.246094 C 46.398438 40.835938 48.589844 41.632812 51.253906 41.632812 C 53.035156 41.632812 54.632812 41.367188 56.039062 40.835938 L 57.261719 37.027344 L 58.1875 37.058594 L 57.988281 42.03125 C 55.457031 42.5625 53.277344 42.824219 51.449219 42.824219 C 49.644531 42.824219 48.148438 42.726562 46.960938 42.527344 C 45.792969 42.328125 44.648438 41.976562 43.523438 41.46875 C 42.402344 40.960938 41.445312 40.308594 40.652344 39.511719 C 39.882812 38.714844 39.253906 37.6875 38.769531 36.429688 C 38.308594 35.148438 38.078125 33.589844 38.078125 31.757812 C 38.078125 29.921875 38.429688 28.234375 39.132812 26.6875 C 39.859375 25.117188 40.839844 23.882812 42.070312 22.976562 C 44.515625 21.164062 47.421875 20.257812 50.789062 20.257812 Z M 77.734375 34.539062 C 77.734375 36.992188 76.996094 39.015625 75.523438 40.605469 C 74.046875 42.195312 72.035156 42.992188 69.480469 42.992188 C 66.949219 42.992188 64.945312 42.195312 63.46875 40.605469 C 61.996094 39.015625 61.257812 36.992188 61.257812 34.539062 C 61.257812 32.089844 61.996094 30.066406 63.46875 28.476562 C 64.945312 26.886719 66.949219 26.089844 69.480469 26.089844 C 72.035156 26.089844 74.046875 26.886719 75.523438 28.476562 C 76.996094 30.066406 77.734375 32.089844 77.734375 34.539062 Z M 64.855469 34.539062 C 64.855469 39.644531 66.398438 42.195312 69.480469 42.195312 C 72.582031 42.195312 74.136719 39.644531 74.136719 34.539062 C 74.136719 32.066406 73.785156 30.175781 73.078125 28.875 C 72.375 27.570312 71.1875 26.917969 69.511719 26.917969 C 67.839844 26.917969 66.640625 27.570312 65.914062 28.875 C 65.210938 30.175781 64.855469 32.066406 64.855469 34.539062 Z M 85.953125 29.96875 C 86.945312 27.40625 88.9375 26.125 91.929688 26.125 C 93.425781 26.125 94.636719 26.578125 95.5625 27.480469 C 96.488281 28.367188 96.949219 29.636719 96.949219 31.292969 C 96.949219 34.144531 96.859375 37.601562 96.683594 41.664062 L 98.964844 41.832031 L 98.964844 42.625 L 91.664062 42.625 L 91.664062 41.832031 L 93.449219 41.699219 C 93.625 36.707031 93.714844 33.84375 93.714844 33.117188 C 93.714844 32.386719 93.703125 31.835938 93.679688 31.457031 C 93.65625 31.0625 93.59375 30.585938 93.480469 30.035156 C 93.394531 29.460938 93.25 29.007812 93.050781 28.675781 C 92.566406 27.859375 91.808594 27.449219 90.773438 27.449219 C 89.363281 27.449219 88.210938 28.035156 87.308594 29.207031 C 86.40625 30.375 85.953125 31.648438 85.953125 33.015625 L 85.953125 41.664062 L 88.429688 41.832031 L 88.429688 42.625 L 80.539062 42.625 L 80.539062 41.832031 L 82.71875 41.664062 L 82.71875 27.648438 L 79.910156 27.515625 L 79.910156 26.753906 L 85.820312 26.355469 L 85.65625 29.933594 Z M 111.183594 39.179688 C 111.183594 39.246094 111.171875 39.324219 111.152344 39.414062 C 110.800781 40.496094 110.203125 41.367188 109.367188 42.03125 C 108.554688 42.671875 107.597656 42.992188 106.496094 42.992188 C 105.394531 42.992188 104.46875 42.683594 103.722656 42.0625 C 102.996094 41.421875 102.632812 40.1875 102.632812 38.351562 C 102.632812 37.84375 102.6875 34.164062 102.796875 27.316406 L 100.519531 27.316406 L 100.519531 26.453125 L 102.828125 26.453125 L 102.863281 21.582031 L 106.097656 21.582031 L 106 26.453125 L 110.722656 26.453125 L 110.722656 27.316406 L 106 27.316406 C 105.890625 34.453125 105.835938 38.628906 105.835938 39.84375 C 105.835938 41.324219 106.320312 42.0625 107.289062 42.0625 C 107.882812 42.0625 108.5 41.722656 109.136719 41.035156 C 109.796875 40.351562 110.257812 39.578125 110.523438 38.714844 C 110.964844 38.714844 111.183594 38.871094 111.183594 39.179688 Z M 116.246094 39.046875 C 116.246094 40.484375 116.828125 41.335938 117.996094 41.597656 C 118.261719 41.664062 118.515625 41.699219 118.757812 41.699219 C 119.59375 41.699219 120.460938 41.34375 121.363281 40.636719 C 122.265625 39.910156 122.742188 38.9375 122.785156 37.722656 L 122.785156 34.871094 C 118.425781 34.917969 116.246094 36.308594 116.246094 39.046875 Z M 117.566406 43.023438 C 116.3125 43.023438 115.234375 42.683594 114.332031 41.996094 C 113.449219 41.289062 113.011719 40.308594 113.011719 39.046875 C 113.03125 37.347656 113.878906 36.078125 115.554688 35.238281 C 117.25 34.398438 119.660156 33.976562 122.785156 33.976562 L 122.785156 31.128906 C 122.785156 28.320312 121.773438 26.917969 119.746094 26.917969 C 118.710938 26.917969 117.875 27.351562 117.238281 28.210938 C 116.796875 28.808594 116.578125 29.546875 116.578125 30.429688 C 116.578125 30.808594 116.621094 31.203125 116.707031 31.625 C 116.402344 31.84375 116.082031 31.957031 115.75 31.957031 C 115.441406 31.957031 115.132812 31.890625 114.828125 31.757812 C 114.121094 31.492188 113.769531 30.984375 113.769531 30.234375 C 113.769531 29.214844 114.132812 28.378906 114.859375 27.714844 C 116.046875 26.632812 117.6875 26.089844 119.78125 26.089844 C 121.871094 26.089844 123.390625 26.542969 124.335938 27.449219 C 125.285156 28.332031 125.757812 29.734375 125.757812 31.65625 L 125.757812 41.699219 L 128.53125 41.832031 L 128.5625 42.59375 L 123.046875 42.992188 L 122.75 40.042969 C 121.738281 42.03125 120.011719 43.023438 117.566406 43.023438 Z M 138.460938 26.089844 C 139.691406 26.089844 140.882812 26.355469 142.027344 26.886719 C 142.664062 27.171875 143.171875 27.613281 143.542969 28.210938 C 143.941406 28.808594 144.140625 29.503906 144.140625 30.300781 C 144.140625 31.09375 143.785156 31.636719 143.082031 31.921875 C 142.796875 32.035156 142.488281 32.089844 142.15625 32.089844 C 141.847656 32.089844 141.53125 31.976562 141.199219 31.757812 C 141.289062 31.292969 141.332031 30.75 141.332031 30.132812 C 141.332031 29.492188 141.132812 28.886719 140.738281 28.3125 C 140.164062 27.449219 139.351562 27.019531 138.292969 27.019531 C 135.234375 27.019531 133.703125 29.546875 133.703125 34.605469 C 133.703125 37.082031 134.058594 38.949219 134.761719 40.207031 C 135.488281 41.445312 136.65625 42.0625 138.261719 42.0625 C 140.308594 42.0625 141.949219 41.070312 143.179688 39.082031 C 143.664062 39.234375 143.90625 39.480469 143.90625 39.808594 C 143.90625 40.121094 143.699219 40.515625 143.28125 41.003906 C 142.882812 41.46875 142.179688 41.921875 141.167969 42.363281 C 140.175781 42.78125 139.03125 42.992188 137.734375 42.992188 C 135.464844 42.992188 133.628906 42.21875 132.21875 40.671875 C 130.832031 39.125 130.136719 37.082031 130.136719 34.539062 C 130.136719 32 130.886719 29.957031 132.382812 28.410156 C 133.902344 26.863281 135.929688 26.089844 138.460938 26.089844 Z M 156.847656 39.179688 C 156.847656 39.246094 156.835938 39.324219 156.8125 39.414062 C 156.460938 40.496094 155.867188 41.367188 155.03125 42.03125 C 154.214844 42.671875 153.257812 42.992188 152.15625 42.992188 C 151.054688 42.992188 150.132812 42.683594 149.382812 42.0625 C 148.65625 41.421875 148.292969 40.1875 148.292969 38.351562 C 148.292969 37.84375 148.347656 34.164062 148.457031 27.316406 L 146.179688 27.316406 L 146.179688 26.453125 L 148.492188 26.453125 L 148.523438 21.582031 L 151.761719 21.582031 L 151.660156 26.453125 L 156.382812 26.453125 L 156.382812 27.316406 L 151.660156 27.316406 C 151.550781 34.453125 151.496094 38.628906 151.496094 39.84375 C 151.496094 41.324219 151.980469 42.0625 152.949219 42.0625 C 153.542969 42.0625 154.160156 41.722656 154.796875 41.035156 C 155.460938 40.351562 155.921875 39.578125 156.183594 38.714844 C 156.625 38.714844 156.847656 38.871094 156.847656 39.179688 Z M 156.847656 39.179688 "/>
</g>
</svg>
