<?xml version="1.0" encoding="UTF-8"?>
<svg xmlns="http://www.w3.org/2000/svg" xmlns:xlink="http://www.w3.org/1999/xlink" width="20628pt" height="6850pt" viewBox="0 0 20628 6850" version="1.1">
<g id="surface1">
<path style="fill-rule:nonzero;fill:rgb(88.235294%,51.764706%,25.490196%);fill-opacity:1;stroke-width:47.1257;stroke-linecap:butt;stroke-linejoin:miter;stroke:rgb(100%,100%,100%);stroke-opacity:1;stroke-miterlimit:4;" d="M 24.437904 24.437362 L 5965.836394 24.437362 L 5965.836394 1964.566971 L 24.437904 1964.566971 Z M 24.437904 24.437362 " transform="matrix(3.443677,0,0,3.443753,0,0)"/>
<path style=" stroke:none;fill-rule:nonzero;fill:rgb(99.607843%,99.607843%,99.607843%);fill-opacity:1;" d="M 5291.417969 2103.015625 C 5291.417969 2103.015625 5527.652344 2113.332031 6000.125 2133.976562 L 6020.753906 2760.113281 L 5910.65625 2760.113281 L 5793.710938 2309.433594 C 5669.84375 2256.679688 5523.070312 2230.304688 5353.367188 2230.304688 C 5075.84375 2230.304688 4845.355469 2322.046875 4661.878906 2505.53125 C 4480.671875 2686.71875 4390.101562 2951.625 4390.101562 3300.242188 C 4390.101562 3648.863281 4478.398438 3906.871094 4654.988281 4074.304688 C 4833.890625 4239.429688 5062.070312 4322.015625 5339.59375 4322.015625 C 5525.378906 4322.015625 5691.640625 4294.496094 5838.445312 4239.429688 L 5965.722656 3843.8125 L 6062.039062 3847.257812 L 6041.414062 4363.300781 C 5777.664062 4418.335938 5550.585938 4445.847656 5360.21875 4445.847656 C 5172.164062 4445.847656 5016.199219 4435.554688 4892.363281 4414.890625 C 4770.800781 4394.261719 4651.546875 4357.554688 4534.566406 4304.792969 C 4417.617188 4252.070312 4317.855469 4184.402344 4235.273438 4101.820312 C 4155.003906 4019.269531 4089.640625 3912.621094 4039.195312 3781.894531 C 3991.015625 3648.863281 3966.945312 3487.179688 3966.945312 3296.800781 C 3966.945312 3106.4375 4003.65625 2930.980469 4077.039062 2770.4375 C 4152.730469 2607.59375 4254.769531 2479.15625 4383.214844 2385.121094 C 4637.773438 2197.050781 4940.539062 2103.015625 5291.417969 2103.015625 Z M 8098.703125 3585.773438 C 8098.703125 3840.371094 8021.839844 4050.230469 7868.179688 4215.359375 C 7714.523438 4380.488281 7504.667969 4463.070312 7238.640625 4463.070312 C 6974.890625 4463.070312 6766.171875 4380.488281 6612.515625 4215.359375 C 6458.855469 4050.230469 6381.996094 3840.371094 6381.996094 3585.773438 C 6381.996094 3331.207031 6458.855469 3121.34375 6612.515625 2956.210938 C 6766.171875 2791.074219 6974.890625 2708.507812 7238.640625 2708.507812 C 7504.667969 2708.507812 7714.523438 2791.074219 7868.179688 2956.210938 C 8021.839844 3121.34375 8098.703125 3331.207031 8098.703125 3585.773438 Z M 6757.007812 3585.773438 C 6757.007812 4115.597656 6917.554688 4380.488281 7238.640625 4380.488281 C 7562.003906 4380.488281 7723.683594 4115.597656 7723.683594 3585.773438 C 7723.683594 3328.910156 7687.011719 3132.816406 7613.625 2997.496094 C 7540.207031 2862.175781 7416.371094 2794.515625 7242.050781 2794.515625 C 7067.769531 2794.515625 6942.761719 2862.175781 6867.070312 2997.496094 C 6793.6875 3132.816406 6757.007812 3328.910156 6757.007812 3585.773438 Z M 8954.835938 3111.023438 C 9058.039062 2844.972656 9265.628906 2711.949219 9577.519531 2711.949219 C 9733.484375 2711.949219 9859.625 2758.964844 9955.945312 2853 C 10052.300781 2944.742188 10100.441406 3076.621094 10100.441406 3248.636719 C 10100.441406 3544.515625 10091.285156 3903.421875 10072.929688 4325.457031 L 10310.300781 4342.640625 L 10310.300781 4425.222656 L 9550.003906 4425.222656 L 9550.003906 4342.640625 L 9735.789062 4328.898438 C 9754.144531 3810.546875 9763.308594 3513.523438 9763.308594 3437.855469 C 9763.308594 3362.167969 9762.167969 3304.832031 9759.863281 3265.839844 C 9757.554688 3224.554688 9750.703125 3175.246094 9739.234375 3117.90625 C 9730.039062 3058.273438 9715.132812 3011.257812 9694.5 2976.855469 C 9644.050781 2891.992188 9564.917969 2849.5625 9457.128906 2849.5625 C 9310.324219 2849.5625 9189.933594 2910.339844 9095.886719 3031.898438 C 9001.875 3153.453125 8954.835938 3285.332031 8954.835938 3427.535156 L 8954.835938 4325.457031 L 9212.871094 4342.640625 L 9212.871094 4425.222656 L 8390.65625 4425.222656 L 8390.65625 4342.640625 L 8617.699219 4325.457031 L 8617.699219 2870.203125 L 8325.296875 2856.445312 L 8325.296875 2777.3125 L 8941.09375 2736.03125 L 8923.875 3107.585938 Z M 11583.496094 4067.414062 C 11583.496094 4074.304688 11582.359375 4082.328125 11580.050781 4091.523438 C 11543.378906 4203.890625 11481.460938 4294.496094 11394.300781 4363.300781 C 11309.449219 4429.800781 11209.683594 4463.070312 11095.007812 4463.070312 C 10980.335938 4463.070312 10883.984375 4430.972656 10806.019531 4366.75 C 10730.328125 4300.214844 10692.476562 4171.796875 10692.476562 3981.425781 C 10692.476562 3928.667969 10698.230469 3546.789062 10709.695312 2835.800781 L 10472.324219 2835.800781 L 10472.324219 2746.351562 L 10713.140625 2746.351562 L 10716.585938 2240.625 L 11053.722656 2240.625 L 11043.390625 2746.351562 L 11535.351562 2746.351562 L 11535.351562 2835.800781 L 11043.390625 2835.800781 C 11031.921875 3576.613281 11026.207031 4010.078125 11026.207031 4136.222656 C 11026.207031 4289.917969 11076.65625 4366.75 11177.554688 4366.75 C 11239.472656 4366.75 11303.699219 4331.171875 11370.230469 4260.09375 C 11439.03125 4188.980469 11487.175781 4108.707031 11514.691406 4019.269531 C 11560.5625 4019.269531 11583.496094 4035.320312 11583.496094 4067.414062 Z M 12110.929688 4053.675781 C 12110.929688 4202.757812 12171.675781 4291.054688 12293.234375 4318.566406 C 12320.753906 4325.457031 12347.128906 4328.898438 12372.375 4328.898438 C 12459.53125 4328.898438 12550.101562 4292.1875 12644.148438 4218.804688 C 12738.195312 4143.109375 12787.507812 4042.207031 12792.089844 3916.0625 L 12792.089844 3620.175781 C 12337.96875 3624.792969 12110.929688 3769.257812 12110.929688 4053.675781 Z M 12248.539062 4466.511719 C 12117.78125 4466.511719 12005.417969 4430.941406 11911.367188 4359.859375 C 11819.628906 4286.472656 11773.757812 4184.402344 11773.757812 4053.675781 C 11776.066406 3877.082031 11864.363281 3745.183594 12038.679688 3658.023438 C 12215.273438 3570.863281 12466.421875 3527.300781 12792.089844 3527.300781 L 12792.089844 3231.433594 C 12792.089844 2940.15625 12686.574219 2794.515625 12475.578125 2794.515625 C 12367.792969 2794.515625 12280.632812 2839.242188 12214.136719 2928.6875 C 12168.265625 2990.613281 12145.332031 3067.445312 12145.332031 3159.191406 C 12145.332031 3198.179688 12149.910156 3239.460938 12159.074219 3283.039062 C 12126.976562 3305.976562 12093.710938 3317.441406 12059.308594 3317.441406 C 12027.214844 3317.441406 11995.085938 3310.5625 11962.988281 3296.800781 C 11889.605469 3269.277344 11852.894531 3216.527344 11852.894531 3138.546875 C 11852.894531 3033.042969 11890.742188 2945.890625 11966.433594 2877.082031 C 12090.265625 2764.699219 12261.144531 2708.507812 12479.027344 2708.507812 C 12696.90625 2708.507812 12855.140625 2755.527344 12953.769531 2849.5625 C 13052.398438 2941.300781 13101.710938 3086.941406 13101.710938 3286.480469 L 13101.710938 4328.898438 L 13390.667969 4342.640625 L 13394.113281 4421.777344 L 12819.601562 4463.070312 L 12788.644531 4156.882812 C 12683.128906 4363.300781 12503.097656 4466.511719 12248.539062 4466.511719 Z M 14425.148438 2708.507812 C 14553.566406 2708.507812 14677.433594 2736.03125 14796.6875 2791.074219 C 14863.1875 2820.890625 14915.945312 2866.761719 14954.925781 2928.6875 C 14996.214844 2990.613281 15016.875 3062.863281 15016.875 3145.425781 C 15016.875 3227.996094 14980.167969 3284.1875 14906.78125 3314.003906 C 14876.960938 3325.46875 14844.863281 3331.207031 14810.464844 3331.207031 C 14778.332031 3331.207031 14745.066406 3319.734375 14710.664062 3296.800781 C 14719.859375 3248.636719 14724.4375 3192.445312 14724.4375 3128.226562 C 14724.4375 3061.710938 14703.8125 2998.640625 14662.519531 2939.007812 C 14602.878906 2849.5625 14518.027344 2804.839844 14407.933594 2804.839844 C 14089.148438 2804.839844 13929.742188 3067.445312 13929.742188 3592.660156 C 13929.742188 3849.53125 13966.453125 4043.34375 14039.835938 4174.070312 C 14115.527344 4302.519531 14237.089844 4366.75 14404.484375 4366.75 C 14617.789062 4366.75 14788.664062 4263.539062 14917.078125 4057.121094 C 14967.5625 4073.167969 14992.769531 4098.375 14992.769531 4132.777344 C 14992.769531 4164.90625 14971.003906 4206.199219 14927.410156 4256.652344 C 14886.117188 4304.792969 14812.734375 4351.835938 14707.253906 4397.707031 C 14604.050781 4441.273438 14484.757812 4463.070312 14349.457031 4463.070312 C 14113.21875 4463.070312 13921.71875 4382.796875 13774.949219 4222.246094 C 13630.453125 4061.699219 13558.203125 3849.53125 13558.203125 3585.773438 C 13558.203125 3322.03125 13636.167969 3109.878906 13792.132812 2949.328125 C 13950.40625 2788.785156 14161.398438 2708.507812 14425.148438 2708.507812 Z M 16340.695312 4067.414062 C 16340.695312 4074.304688 16339.558594 4082.328125 16337.253906 4091.523438 C 16300.574219 4203.890625 16238.65625 4294.496094 16151.5 4363.300781 C 16066.644531 4429.800781 15966.882812 4463.070312 15852.210938 4463.070312 C 15737.535156 4463.070312 15641.179688 4430.972656 15563.214844 4366.75 C 15487.523438 4300.214844 15449.679688 4171.796875 15449.679688 3981.425781 C 15449.679688 3928.667969 15455.429688 3546.789062 15466.894531 2835.800781 L 15229.523438 2835.800781 L 15229.523438 2746.351562 L 15470.339844 2746.351562 L 15473.785156 2240.625 L 15810.917969 2240.625 L 15800.589844 2746.351562 L 16292.550781 2746.351562 L 16292.550781 2835.800781 L 15800.589844 2835.800781 C 15789.121094 3576.613281 15783.40625 4010.078125 15783.40625 4136.222656 C 15783.40625 4289.917969 15833.855469 4366.75 15934.753906 4366.75 C 15996.671875 4366.75 16060.894531 4331.171875 16127.429688 4260.09375 C 16196.230469 4188.980469 16244.375 4108.707031 16271.890625 4019.269531 C 16317.757812 4019.269531 16340.695312 4035.320312 16340.695312 4067.414062 Z M 16340.695312 4067.414062 "/>
</g>
</svg>
