<?xml version="1.0" encoding="UTF-8"?>
<svg xmlns="http://www.w3.org/2000/svg" xmlns:xlink="http://www.w3.org/1999/xlink" width="22002pt" height="7306pt" viewBox="0 0 22002 7306" version="1.1">
<g id="surface1">
<path style="fill-rule:nonzero;fill:rgb(88.235294%,51.764706%,25.490196%);fill-opacity:1;stroke-width:47.1257;stroke-linecap:butt;stroke-linejoin:miter;stroke:rgb(100%,100%,100%);stroke-opacity:1;stroke-miterlimit:4;" d="M 24.437446 24.436909 L 5965.836929 24.436909 L 5965.836929 1964.567345 L 24.437446 1964.567345 Z M 24.437446 24.436909 " transform="matrix(3.673122,0,0,3.673203,0,0)"/>
<path style=" stroke:none;fill-rule:nonzero;fill:rgb(99.607843%,99.607843%,99.607843%);fill-opacity:1;" d="M 5643.972656 2243.132812 C 5643.972656 2243.132812 5895.949219 2254.140625 6399.902344 2276.160156 L 6421.902344 2944.011719 L 6304.472656 2944.011719 L 6179.734375 2463.304688 C 6047.613281 2407.039062 5891.0625 2378.90625 5710.050781 2378.90625 C 5414.035156 2378.90625 5168.191406 2476.757812 4972.488281 2672.46875 C 4779.210938 2865.730469 4682.605469 3148.285156 4682.605469 3520.128906 C 4682.605469 3891.980469 4776.785156 4167.175781 4965.140625 4345.765625 C 5155.960938 4521.894531 5399.34375 4609.980469 5695.359375 4609.980469 C 5893.523438 4609.980469 6070.863281 4580.628906 6227.449219 4521.894531 L 6363.207031 4099.917969 L 6465.941406 4103.589844 L 6443.941406 4654.019531 C 6162.617188 4712.71875 5920.410156 4742.066406 5717.359375 4742.066406 C 5516.773438 4742.066406 5350.417969 4731.085938 5218.332031 4709.046875 C 5088.667969 4687.042969 4961.46875 4647.886719 4836.695312 4591.613281 C 4711.953125 4535.375 4605.542969 4463.199219 4517.460938 4375.113281 C 4431.84375 4287.066406 4362.125 4173.308594 4308.316406 4033.875 C 4256.929688 3891.980469 4231.253906 3719.523438 4231.253906 3516.460938 C 4231.253906 3313.414062 4270.410156 3126.265625 4348.683594 2955.023438 C 4429.417969 2781.332031 4538.253906 2644.335938 4675.257812 2544.035156 C 4946.777344 2343.433594 5269.71875 2243.132812 5643.972656 2243.132812 Z M 8638.300781 3824.683594 C 8638.300781 4096.246094 8556.316406 4320.089844 8392.421875 4496.21875 C 8228.527344 4672.351562 8004.6875 4760.433594 7720.9375 4760.433594 C 7439.613281 4760.433594 7216.988281 4672.351562 7053.09375 4496.21875 C 6889.195312 4320.089844 6807.214844 4096.246094 6807.214844 3824.683594 C 6807.214844 3553.15625 6889.195312 3329.3125 7053.09375 3153.175781 C 7216.988281 2977.039062 7439.613281 2888.96875 7720.9375 2888.96875 C 8004.6875 2888.96875 8228.527344 2977.039062 8392.421875 3153.175781 C 8556.316406 3329.3125 8638.300781 3553.15625 8638.300781 3824.683594 Z M 7207.214844 3824.683594 C 7207.214844 4389.808594 7378.457031 4672.351562 7720.9375 4672.351562 C 8065.84375 4672.351562 8238.296875 4389.808594 8238.296875 3824.683594 C 8238.296875 3550.707031 8199.179688 3341.546875 8120.90625 3197.210938 C 8042.59375 3052.875 7910.507812 2980.707031 7724.574219 2980.707031 C 7538.679688 2980.707031 7405.34375 3052.875 7324.609375 3197.210938 C 7246.335938 3341.546875 7207.214844 3550.707031 7207.214844 3824.683594 Z M 9551.476562 3318.304688 C 9661.558594 3034.527344 9882.976562 2892.640625 10215.648438 2892.640625 C 10382.003906 2892.640625 10516.550781 2942.789062 10619.289062 3043.089844 C 10722.0625 3140.945312 10773.414062 3281.609375 10773.414062 3465.085938 C 10773.414062 3780.679688 10763.644531 4163.5 10744.066406 4613.652344 L 10997.253906 4631.980469 L 10997.253906 4720.066406 L 10186.300781 4720.066406 L 10186.300781 4631.980469 L 10384.464844 4617.324219 C 10404.042969 4064.433594 10413.816406 3747.621094 10413.816406 3666.910156 C 10413.816406 3586.179688 10412.601562 3525.023438 10410.140625 3483.433594 C 10407.679688 3439.398438 10400.371094 3386.804688 10388.140625 3325.644531 C 10378.332031 3262.039062 10362.429688 3211.890625 10340.425781 3175.195312 C 10286.613281 3084.679688 10202.207031 3039.421875 10087.238281 3039.421875 C 9930.652344 3039.421875 9802.238281 3104.25 9701.925781 3233.90625 C 9601.652344 3363.5625 9551.476562 3504.226562 9551.476562 3655.902344 L 9551.476562 4613.652344 L 9826.703125 4631.980469 L 9826.703125 4720.066406 L 8949.707031 4720.066406 L 8949.707031 4631.980469 L 9191.878906 4613.652344 L 9191.878906 3061.4375 L 8879.992188 3046.761719 L 8879.992188 2962.359375 L 9536.820312 2918.328125 L 9518.453125 3314.636719 Z M 12355.28125 4338.417969 C 12355.28125 4345.765625 12354.066406 4354.324219 12351.605469 4364.132812 C 12312.488281 4483.988281 12246.445312 4580.628906 12153.480469 4654.019531 C 12062.972656 4724.949219 11956.5625 4760.433594 11834.246094 4760.433594 C 11711.933594 4760.433594 11609.160156 4726.199219 11526 4657.695312 C 11445.265625 4586.726562 11404.894531 4449.753906 11404.894531 4246.699219 C 11404.894531 4190.425781 11411.03125 3783.105469 11423.261719 3024.742188 L 11170.074219 3024.742188 L 11170.074219 2929.335938 L 11426.933594 2929.335938 L 11430.609375 2389.914062 L 11790.207031 2389.914062 L 11779.1875 2929.335938 L 12303.929688 2929.335938 L 12303.929688 3024.742188 L 11779.1875 3024.742188 C 11766.957031 3814.914062 11760.859375 4277.261719 11760.859375 4411.808594 C 11760.859375 4575.746094 11814.671875 4657.695312 11922.292969 4657.695312 C 11988.335938 4657.695312 12056.839844 4619.75 12127.804688 4543.933594 C 12201.191406 4468.082031 12252.542969 4382.460938 12281.890625 4287.066406 C 12330.816406 4287.066406 12355.28125 4304.183594 12355.28125 4338.417969 Z M 12917.855469 4323.761719 C 12917.855469 4482.777344 12982.648438 4576.957031 13112.308594 4606.304688 C 13141.660156 4613.652344 13169.792969 4617.324219 13196.71875 4617.324219 C 13289.683594 4617.324219 13386.289062 4578.167969 13486.601562 4499.894531 C 13586.914062 4419.15625 13639.511719 4311.53125 13644.398438 4176.980469 L 13644.398438 3861.378906 C 13160.023438 3866.304688 12917.855469 4020.394531 12917.855469 4323.761719 Z M 13064.632812 4764.105469 C 12925.164062 4764.105469 12805.3125 4726.164062 12704.996094 4650.347656 C 12607.144531 4572.070312 12558.21875 4463.199219 12558.21875 4323.761719 C 12560.679688 4135.402344 12654.859375 3994.71875 12840.792969 3901.75 C 13029.152344 3808.78125 13297.03125 3762.316406 13644.398438 3762.316406 L 13644.398438 3446.738281 C 13644.398438 3136.050781 13531.855469 2980.707031 13306.800781 2980.707031 C 13191.832031 2980.707031 13098.867188 3028.414062 13027.9375 3123.820312 C 12979.011719 3189.871094 12954.550781 3271.824219 12954.550781 3369.679688 C 12954.550781 3411.265625 12959.433594 3455.300781 12969.207031 3501.78125 C 12934.972656 3526.246094 12899.488281 3538.476562 12862.796875 3538.476562 C 12828.5625 3538.476562 12794.292969 3531.136719 12760.058594 3516.460938 C 12681.785156 3487.101562 12642.628906 3430.835938 12642.628906 3347.660156 C 12642.628906 3235.128906 12682.996094 3142.167969 12763.730469 3068.777344 C 12895.816406 2948.90625 13078.078125 2888.96875 13310.476562 2888.96875 C 13542.875 2888.96875 13711.652344 2939.121094 13816.851562 3039.421875 C 13922.050781 3137.273438 13974.648438 3292.617188 13974.648438 3505.449219 L 13974.648438 4617.324219 L 14282.859375 4631.980469 L 14286.535156 4716.390625 L 13673.746094 4760.433594 L 13640.726562 4433.847656 C 13528.179688 4654.019531 13336.152344 4764.105469 13064.632812 4764.105469 Z M 15386.265625 2888.96875 C 15523.238281 2888.96875 15655.359375 2918.328125 15782.558594 2977.039062 C 15853.488281 3008.839844 15909.761719 3057.769531 15951.339844 3123.820312 C 15995.378906 3189.871094 16017.417969 3266.933594 16017.417969 3355 C 16017.417969 3443.070312 15978.265625 3503.003906 15899.988281 3534.808594 C 15868.179688 3547.039062 15833.945312 3553.15625 15797.253906 3553.15625 C 15762.980469 3553.15625 15727.5 3540.921875 15690.804688 3516.460938 C 15700.613281 3465.085938 15705.496094 3405.152344 15705.496094 3336.652344 C 15705.496094 3265.707031 15683.496094 3198.433594 15639.453125 3134.828125 C 15575.835938 3039.421875 15485.332031 2991.71875 15367.902344 2991.71875 C 15027.878906 2991.71875 14857.851562 3271.824219 14857.851562 3832.03125 C 14857.851562 4106.015625 14897.007812 4312.742188 14975.28125 4452.179688 C 15056.015625 4589.1875 15185.675781 4657.695312 15364.226562 4657.695312 C 15591.742188 4657.695312 15774 4547.609375 15910.972656 4327.4375 C 15964.820312 4344.554688 15991.707031 4371.441406 15991.707031 4408.136719 C 15991.707031 4442.40625 15968.492188 4486.449219 15921.992188 4540.261719 C 15877.949219 4591.613281 15799.675781 4641.789062 15687.167969 4690.714844 C 15577.085938 4737.183594 15449.847656 4760.433594 15305.53125 4760.433594 C 15053.554688 4760.433594 14849.292969 4674.8125 14692.746094 4503.566406 C 14538.621094 4332.320312 14461.558594 4106.015625 14461.558594 3824.683594 C 14461.558594 3543.371094 14544.71875 3317.082031 14711.074219 3145.835938 C 14879.890625 2974.59375 15104.941406 2888.96875 15386.265625 2888.96875 Z M 17429.441406 4338.417969 C 17429.441406 4345.765625 17428.230469 4354.324219 17425.769531 4364.132812 C 17386.648438 4483.988281 17320.605469 4580.628906 17227.640625 4654.019531 C 17137.132812 4724.949219 17030.722656 4760.433594 16908.410156 4760.433594 C 16786.09375 4760.433594 16683.320312 4726.199219 16600.160156 4657.695312 C 16519.425781 4586.726562 16479.058594 4449.753906 16479.058594 4246.699219 C 16479.058594 4190.425781 16485.191406 3783.105469 16497.421875 3024.742188 L 16244.234375 3024.742188 L 16244.234375 2929.335938 L 16501.097656 2929.335938 L 16504.769531 2389.914062 L 16864.367188 2389.914062 L 16853.347656 2929.335938 L 17378.089844 2929.335938 L 17378.089844 3024.742188 L 16853.347656 3024.742188 C 16841.117188 3814.914062 16835.019531 4277.261719 16835.019531 4411.808594 C 16835.019531 4575.746094 16888.832031 4657.695312 16996.453125 4657.695312 C 17062.496094 4657.695312 17131 4619.75 17201.964844 4543.933594 C 17275.351562 4468.082031 17326.703125 4382.460938 17356.050781 4287.066406 C 17404.976562 4287.066406 17429.441406 4304.183594 17429.441406 4338.417969 Z M 17429.441406 4338.417969 "/>
</g>
</svg>
